<svg width="23" height="24" viewBox="0 0 23 24" fill="none" xmlns="http://www.w3.org/2000/svg">
<path fill-rule="evenodd" clip-rule="evenodd" d="M10.6382 0.697083V0.883614V2.18934H11.1978V5.18332C9.64369 5.28031 8.39978 6.57082 8.39978 8.14451V9.65061H7.65365C7.49689 9.65061 7.35152 9.69967 7.23104 9.78322L4.47314 8.25089C4.47836 8.22044 4.48261 8.19018 4.48261 8.15835C4.48261 7.91704 4.32556 7.71078 4.10955 7.633V5.54691H4.66914V4.05465H3.17689V4.24119V5.54691H3.73649V7.633C3.52047 7.71078 3.36342 7.91704 3.36342 8.15835C3.36342 8.4652 3.61617 8.71795 3.92302 8.71795C4.0636 8.71795 4.19148 8.66287 4.29025 8.57586L6.98476 10.0732C6.93687 10.1715 6.90753 10.2807 6.90753 10.3967V13.1947H1.68464V12.6351H0.192383V12.8216V14.1274H1.68464V13.5678H6.90753V14.1274V14.8677L4.29098 16.322C4.19209 16.2345 4.06408 16.1792 3.92302 16.1792C3.61617 16.1792 3.36342 16.432 3.36342 16.7388C3.36342 16.9801 3.52047 17.1857 3.73649 17.2634V19.3503H3.17689V19.5368V20.8425H4.66914V19.3503H4.10955V17.2634C4.32556 17.1857 4.48261 16.9801 4.48261 16.7388C4.48261 16.7074 4.47821 16.677 4.47314 16.647L6.90753 15.2946V16.7388V17.1119C6.90753 17.522 7.24352 17.858 7.65365 17.858H11.1978V21.5886H10.6382V21.7752V23.0809H12.1304V21.5886H11.5708V17.858H15.1149C15.5251 17.858 15.861 17.522 15.861 17.1119V15.2946L18.2954 16.647C18.2904 16.677 18.286 16.7074 18.286 16.7388C18.286 16.9801 18.443 17.1857 18.659 17.2634V19.3503H18.0994V19.5368V20.8425H19.5917V19.3503H19.0321V17.2634C19.2481 17.1857 19.4052 16.9801 19.4052 16.7388C19.4052 16.432 19.1524 16.1792 18.8456 16.1792C18.7049 16.1792 18.5771 16.2342 18.4783 16.3213L15.861 14.8684V13.5678H21.0839V14.1274H22.5762V12.6351H21.0839V12.8216V13.1947H15.861V10.3967C15.861 10.2807 15.8317 10.1715 15.7838 10.0732L18.4791 8.57586C18.5778 8.66265 18.7052 8.71795 18.8456 8.71795C19.1524 8.71795 19.4052 8.4652 19.4052 8.15835C19.4052 7.91704 19.2481 7.71078 19.0321 7.633V5.54691H19.5917V4.05465H18.0994V4.24119V5.54691H18.659V7.633C18.443 7.71078 18.286 7.91704 18.286 8.15835C18.286 8.19018 18.2902 8.22044 18.2954 8.25089L15.5375 9.78322C15.4171 9.69967 15.2717 9.65061 15.1149 9.65061H9.88985V8.14742C9.88985 7.31564 10.5394 6.6661 11.3836 6.6661C12.2251 6.6661 12.8727 7.31195 12.8765 8.14014V8.15835C12.8765 8.5685 13.2125 8.90448 13.6227 8.90448C14.0328 8.90448 14.3688 8.5685 14.3688 8.15835V8.10298C14.369 8.08852 14.3675 8.0741 14.3644 8.05999C14.3205 6.52506 13.0967 5.27855 11.5708 5.18332V2.18934H12.1304V0.697083H10.6382ZM11.0112 1.07015H11.7574V1.81627H11.0112V1.07015ZM3.54995 4.42772H4.29608V5.17384H3.54995V4.42772ZM18.4725 4.42772H19.2186V5.17384H18.4725V4.42772ZM11.3843 5.54691C12.8228 5.54691 13.9957 6.71202 13.9957 8.14451V8.15835C13.9957 8.36827 13.8326 8.53142 13.6227 8.53142C13.4128 8.53142 13.2496 8.36827 13.2496 8.15835V8.14742H13.2503C13.2503 8.14251 13.2496 8.13775 13.2496 8.13285V8.10298C13.2498 8.08977 13.2486 8.07658 13.246 8.06363C13.2022 7.07394 12.3938 6.29303 11.3836 6.29303C10.3448 6.29303 9.51678 7.11814 9.51678 8.14742V9.65061H8.77284V8.14451C8.77284 6.71202 9.94573 5.54691 11.3843 5.54691ZM3.92302 7.97182C4.02825 7.97182 4.10955 8.05315 4.10955 8.15835C4.10955 8.26359 4.02825 8.34488 3.92302 8.34488C3.81779 8.34488 3.73649 8.26359 3.73649 8.15835C3.73649 8.05315 3.81779 7.97182 3.92302 7.97182ZM18.8456 7.97182C18.9508 7.97182 19.0321 8.05315 19.0321 8.15835C19.0321 8.26359 18.9508 8.34488 18.8456 8.34488C18.7403 8.34488 18.659 8.26359 18.659 8.15835C18.659 8.05315 18.7403 7.97182 18.8456 7.97182ZM7.65365 10.0237H15.1149C15.3248 10.0237 15.488 10.1868 15.488 10.3967V14.1274H7.28059V10.3967C7.28059 10.1868 7.44374 10.0237 7.65365 10.0237ZM11.3843 10.7698C10.8714 10.7698 10.4516 11.1896 10.4516 11.7025C10.4519 11.9896 10.6031 12.2406 10.8247 12.4158V13.7536H11.9439V12.4151C12.1653 12.2401 12.3164 11.9893 12.3169 11.7025C12.3169 11.1896 11.8972 10.7698 11.3843 10.7698ZM11.3843 11.1429C11.6956 11.1429 11.9439 11.3912 11.9439 11.7025C11.9435 11.9023 11.8372 12.0863 11.6641 12.1863L11.5708 12.2402V13.3812H11.1978V12.2409L11.1045 12.187C10.9312 12.0869 10.8248 11.9025 10.8247 11.7025C10.8247 11.3912 11.073 11.1429 11.3843 11.1429ZM0.565446 13.0082H1.31157V13.1947V13.5678V13.7543H0.565446V13.0082ZM21.457 13.0082H22.2031V13.7543H21.457V13.0082ZM7.28059 14.5004H15.488V16.3657H7.28059V14.5004ZM7.84018 14.8735V15.06V15.9927H8.95937V14.8735H7.84018ZM9.33244 14.8735V15.06V15.9927H10.4516V14.8735H9.33244ZM10.8247 14.8735V15.06V15.9927H11.9439V14.8735H10.8247ZM12.3169 14.8735V15.06V15.9927H13.4361V14.8735H12.3169ZM13.8092 14.8735V15.06V15.9927H14.9284V14.8735H13.8092ZM8.21325 15.2466H8.58631V15.6196H8.21325V15.2466ZM9.7055 15.2466H10.0786V15.6196H9.7055V15.2466ZM11.1978 15.2466H11.5708V15.6196H11.1978V15.2466ZM12.69 15.2466H13.0631V15.6196H12.69V15.2466ZM14.1823 15.2466H14.5553V15.6196H14.1823V15.2466ZM3.92302 16.5523C4.02825 16.5523 4.10955 16.6336 4.10955 16.7388C4.10955 16.8441 4.02825 16.9253 3.92302 16.9253C3.81779 16.9253 3.73649 16.8441 3.73649 16.7388C3.73649 16.6336 3.81779 16.5523 3.92302 16.5523ZM18.8456 16.5523C18.9508 16.5523 19.0321 16.6336 19.0321 16.7388C19.0321 16.8441 18.9508 16.9253 18.8456 16.9253C18.7403 16.9253 18.659 16.8441 18.659 16.7388C18.659 16.6336 18.7403 16.5523 18.8456 16.5523ZM7.28059 16.7388H15.488V17.1119C15.488 17.3218 15.3248 17.4849 15.1149 17.4849H7.65365C7.44374 17.4849 7.28059 17.3218 7.28059 17.1119V16.7388ZM3.54995 19.7233H4.29608V20.4694H3.54995V19.7233ZM18.4725 19.7233H19.2186V20.4694H18.4725V19.7233ZM11.0112 21.9617H11.7574V22.7078H11.0112V21.9617Z" fill="white"/>
</svg>
