<svg width="22" height="22" viewBox="0 0 22 22" fill="none" xmlns="http://www.w3.org/2000/svg">
<path d="M21.6564 20.5516L15.7564 14.6516C17.1742 12.9495 17.8812 10.7663 17.7303 8.55619C17.5795 6.34609 16.5823 4.27923 14.9464 2.78557C13.3104 1.29192 11.1616 0.486478 8.94695 0.5368C6.73227 0.587122 4.62226 1.48933 3.05584 3.05575C1.48942 4.62216 0.587213 6.73218 0.536892 8.94686C0.48657 11.1615 1.29201 13.3103 2.78566 14.9463C4.27932 16.5822 6.34618 17.5794 8.55628 17.7302C10.7664 17.8811 12.9496 17.1741 14.6517 15.7563L20.5517 21.6563L21.6564 20.5516ZM2.12511 9.15626C2.12511 7.76561 2.53748 6.40619 3.31009 5.24991C4.08269 4.09363 5.18082 3.19241 6.46561 2.66024C7.75041 2.12806 9.16416 1.98882 10.5281 2.26012C11.892 2.53142 13.1449 3.20108 14.1282 4.18442C15.1115 5.16776 15.7812 6.42061 16.0525 7.78454C16.3238 9.14846 16.1846 10.5622 15.6524 11.847C15.1202 13.1318 14.219 14.2299 13.0627 15.0025C11.9064 15.7751 10.547 16.1875 9.15636 16.1875C7.29219 16.1854 5.50496 15.444 4.18679 14.1258C2.86863 12.8077 2.12717 11.0204 2.12511 9.15626Z" fill="#1935CA"/>
</svg>
